<mxfile host="Electron" agent="Mozilla/5.0 (Windows NT 10.0; Win64; x64) AppleWebKit/537.36 (KHTML, like Gecko) draw.io/26.0.16 Chrome/132.0.6834.196 Electron/34.2.0 Safari/537.36" version="26.0.16">
  <diagram name="Page-1" id="0LkG6ailr866QZEMzTPR">
    <mxGraphModel dx="2607" dy="1520" grid="1" gridSize="10" guides="1" tooltips="1" connect="1" arrows="1" fold="1" page="1" pageScale="1" pageWidth="850" pageHeight="1100" math="0" shadow="0">
      <root>
        <mxCell id="0" />
        <mxCell id="1" parent="0" />
        <mxCell id="-hfIZKBPIgN7RroAexbz-1" value="" style="rounded=1;whiteSpace=wrap;html=1;" vertex="1" parent="1">
          <mxGeometry x="240" y="320" width="80.00000000000001" height="320" as="geometry" />
        </mxCell>
        <mxCell id="-hfIZKBPIgN7RroAexbz-2" value="" style="rounded=1;whiteSpace=wrap;html=1;" vertex="1" parent="1">
          <mxGeometry x="320" y="320" width="80.00000000000001" height="320" as="geometry" />
        </mxCell>
        <mxCell id="-hfIZKBPIgN7RroAexbz-3" value="" style="rounded=1;whiteSpace=wrap;html=1;" vertex="1" parent="1">
          <mxGeometry x="400" y="320" width="80.00000000000001" height="320" as="geometry" />
        </mxCell>
        <mxCell id="-hfIZKBPIgN7RroAexbz-4" value="" style="rounded=1;whiteSpace=wrap;html=1;" vertex="1" parent="1">
          <mxGeometry x="480" y="320" width="80.00000000000001" height="320" as="geometry" />
        </mxCell>
        <mxCell id="-hfIZKBPIgN7RroAexbz-5" value="" style="rounded=1;whiteSpace=wrap;html=1;" vertex="1" parent="1">
          <mxGeometry x="560" y="320" width="80.00000000000001" height="320" as="geometry" />
        </mxCell>
        <mxCell id="-hfIZKBPIgN7RroAexbz-6" value="" style="rounded=1;whiteSpace=wrap;html=1;" vertex="1" parent="1">
          <mxGeometry x="640" y="320" width="80.00000000000001" height="320" as="geometry" />
        </mxCell>
        <mxCell id="-hfIZKBPIgN7RroAexbz-7" value="" style="rounded=1;whiteSpace=wrap;html=1;" vertex="1" parent="1">
          <mxGeometry x="720" y="320" width="80.00000000000001" height="320" as="geometry" />
        </mxCell>
        <mxCell id="-hfIZKBPIgN7RroAexbz-8" value="" style="rounded=1;whiteSpace=wrap;html=1;" vertex="1" parent="1">
          <mxGeometry x="800" y="320" width="80.00000000000001" height="320" as="geometry" />
        </mxCell>
        <mxCell id="-hfIZKBPIgN7RroAexbz-9" value="" style="rounded=1;whiteSpace=wrap;html=1;" vertex="1" parent="1">
          <mxGeometry x="880.0000000000001" y="320" width="80.00000000000001" height="320" as="geometry" />
        </mxCell>
        <mxCell id="-hfIZKBPIgN7RroAexbz-10" value="" style="rounded=1;whiteSpace=wrap;html=1;" vertex="1" parent="1">
          <mxGeometry x="960.0000000000001" y="320" width="80.00000000000001" height="320" as="geometry" />
        </mxCell>
        <mxCell id="-hfIZKBPIgN7RroAexbz-11" value="" style="rounded=1;whiteSpace=wrap;html=1;" vertex="1" parent="1">
          <mxGeometry x="1040" y="320" width="80.00000000000001" height="320" as="geometry" />
        </mxCell>
        <mxCell id="-hfIZKBPIgN7RroAexbz-12" value="" style="rounded=1;whiteSpace=wrap;html=1;" vertex="1" parent="1">
          <mxGeometry x="1120" y="320" width="80.00000000000001" height="320" as="geometry" />
        </mxCell>
        <mxCell id="-hfIZKBPIgN7RroAexbz-13" value="" style="rounded=1;whiteSpace=wrap;html=1;" vertex="1" parent="1">
          <mxGeometry x="1200" y="320" width="80.00000000000001" height="320" as="geometry" />
        </mxCell>
        <mxCell id="-hfIZKBPIgN7RroAexbz-14" value="" style="rounded=1;whiteSpace=wrap;html=1;" vertex="1" parent="1">
          <mxGeometry x="1280.0000000000002" y="320" width="80.00000000000001" height="320" as="geometry" />
        </mxCell>
        <mxCell id="-hfIZKBPIgN7RroAexbz-17" value="" style="rounded=1;whiteSpace=wrap;html=1;fillColor=#000000;" vertex="1" parent="1">
          <mxGeometry x="290" y="320" width="60" height="200" as="geometry" />
        </mxCell>
        <mxCell id="-hfIZKBPIgN7RroAexbz-18" value="" style="rounded=1;whiteSpace=wrap;html=1;fillColor=#000000;" vertex="1" parent="1">
          <mxGeometry x="370" y="320" width="60" height="200" as="geometry" />
        </mxCell>
        <mxCell id="-hfIZKBPIgN7RroAexbz-19" value="" style="rounded=1;whiteSpace=wrap;html=1;fillColor=#000000;" vertex="1" parent="1">
          <mxGeometry x="530" y="320" width="60" height="200" as="geometry" />
        </mxCell>
        <mxCell id="-hfIZKBPIgN7RroAexbz-20" value="" style="rounded=1;whiteSpace=wrap;html=1;fillColor=#000000;" vertex="1" parent="1">
          <mxGeometry x="610" y="320" width="60" height="200" as="geometry" />
        </mxCell>
        <mxCell id="-hfIZKBPIgN7RroAexbz-21" value="" style="rounded=1;whiteSpace=wrap;html=1;fillColor=#000000;" vertex="1" parent="1">
          <mxGeometry x="690" y="320" width="60" height="200" as="geometry" />
        </mxCell>
        <mxCell id="-hfIZKBPIgN7RroAexbz-22" value="" style="rounded=1;whiteSpace=wrap;html=1;fillColor=#000000;" vertex="1" parent="1">
          <mxGeometry x="850" y="320" width="60" height="200" as="geometry" />
        </mxCell>
        <mxCell id="-hfIZKBPIgN7RroAexbz-23" value="" style="rounded=1;whiteSpace=wrap;html=1;fillColor=#000000;" vertex="1" parent="1">
          <mxGeometry x="930" y="320" width="60" height="200" as="geometry" />
        </mxCell>
        <mxCell id="-hfIZKBPIgN7RroAexbz-24" value="" style="rounded=1;whiteSpace=wrap;html=1;fillColor=#000000;" vertex="1" parent="1">
          <mxGeometry x="1090" y="320" width="60" height="200" as="geometry" />
        </mxCell>
        <mxCell id="-hfIZKBPIgN7RroAexbz-25" value="" style="rounded=1;whiteSpace=wrap;html=1;fillColor=#000000;" vertex="1" parent="1">
          <mxGeometry x="1170" y="320" width="60" height="200" as="geometry" />
        </mxCell>
        <mxCell id="-hfIZKBPIgN7RroAexbz-26" value="" style="rounded=1;whiteSpace=wrap;html=1;fillColor=#000000;" vertex="1" parent="1">
          <mxGeometry x="1250" y="320" width="60" height="200" as="geometry" />
        </mxCell>
        <mxCell id="-hfIZKBPIgN7RroAexbz-27" value="Z" style="rounded=1;whiteSpace=wrap;html=1;" vertex="1" parent="1">
          <mxGeometry x="270" y="600" width="20" height="20" as="geometry" />
        </mxCell>
        <mxCell id="-hfIZKBPIgN7RroAexbz-28" value="X" style="rounded=1;whiteSpace=wrap;html=1;" vertex="1" parent="1">
          <mxGeometry x="350" y="600" width="20" height="20" as="geometry" />
        </mxCell>
        <mxCell id="-hfIZKBPIgN7RroAexbz-29" value="C" style="rounded=1;whiteSpace=wrap;html=1;" vertex="1" parent="1">
          <mxGeometry x="430" y="600" width="20" height="20" as="geometry" />
        </mxCell>
        <mxCell id="-hfIZKBPIgN7RroAexbz-30" value="V" style="rounded=1;whiteSpace=wrap;html=1;" vertex="1" parent="1">
          <mxGeometry x="510" y="600" width="20" height="20" as="geometry" />
        </mxCell>
        <mxCell id="-hfIZKBPIgN7RroAexbz-31" value="B" style="rounded=1;whiteSpace=wrap;html=1;" vertex="1" parent="1">
          <mxGeometry x="590" y="600" width="20" height="20" as="geometry" />
        </mxCell>
        <mxCell id="-hfIZKBPIgN7RroAexbz-32" value="N" style="rounded=1;whiteSpace=wrap;html=1;" vertex="1" parent="1">
          <mxGeometry x="670" y="600" width="20" height="20" as="geometry" />
        </mxCell>
        <mxCell id="-hfIZKBPIgN7RroAexbz-33" value="M" style="rounded=1;whiteSpace=wrap;html=1;" vertex="1" parent="1">
          <mxGeometry x="750" y="600" width="20" height="20" as="geometry" />
        </mxCell>
        <mxCell id="-hfIZKBPIgN7RroAexbz-34" value="Q" style="rounded=1;whiteSpace=wrap;html=1;" vertex="1" parent="1">
          <mxGeometry x="830" y="600" width="20" height="20" as="geometry" />
        </mxCell>
        <mxCell id="-hfIZKBPIgN7RroAexbz-35" value="W" style="rounded=1;whiteSpace=wrap;html=1;" vertex="1" parent="1">
          <mxGeometry x="910" y="600" width="20" height="20" as="geometry" />
        </mxCell>
        <mxCell id="-hfIZKBPIgN7RroAexbz-36" value="E" style="rounded=1;whiteSpace=wrap;html=1;" vertex="1" parent="1">
          <mxGeometry x="990" y="600" width="20" height="20" as="geometry" />
        </mxCell>
        <mxCell id="-hfIZKBPIgN7RroAexbz-37" value="R" style="rounded=1;whiteSpace=wrap;html=1;" vertex="1" parent="1">
          <mxGeometry x="1070" y="600" width="20" height="20" as="geometry" />
        </mxCell>
        <mxCell id="-hfIZKBPIgN7RroAexbz-38" value="T" style="rounded=1;whiteSpace=wrap;html=1;" vertex="1" parent="1">
          <mxGeometry x="1150" y="600" width="20" height="20" as="geometry" />
        </mxCell>
        <mxCell id="-hfIZKBPIgN7RroAexbz-39" value="Y" style="rounded=1;whiteSpace=wrap;html=1;" vertex="1" parent="1">
          <mxGeometry x="1230" y="600" width="20" height="20" as="geometry" />
        </mxCell>
        <mxCell id="-hfIZKBPIgN7RroAexbz-40" value="U" style="rounded=1;whiteSpace=wrap;html=1;" vertex="1" parent="1">
          <mxGeometry x="1310" y="600" width="20" height="20" as="geometry" />
        </mxCell>
        <mxCell id="-hfIZKBPIgN7RroAexbz-41" value="S" style="rounded=1;whiteSpace=wrap;html=1;" vertex="1" parent="1">
          <mxGeometry x="310" y="480" width="20" height="20" as="geometry" />
        </mxCell>
        <mxCell id="-hfIZKBPIgN7RroAexbz-42" value="D" style="rounded=1;whiteSpace=wrap;html=1;" vertex="1" parent="1">
          <mxGeometry x="390" y="480" width="20" height="20" as="geometry" />
        </mxCell>
        <mxCell id="-hfIZKBPIgN7RroAexbz-43" value="G" style="rounded=1;whiteSpace=wrap;html=1;" vertex="1" parent="1">
          <mxGeometry x="550" y="480" width="20" height="20" as="geometry" />
        </mxCell>
        <mxCell id="-hfIZKBPIgN7RroAexbz-44" value="H" style="rounded=1;whiteSpace=wrap;html=1;" vertex="1" parent="1">
          <mxGeometry x="630" y="480" width="20" height="20" as="geometry" />
        </mxCell>
        <mxCell id="-hfIZKBPIgN7RroAexbz-45" value="J" style="rounded=1;whiteSpace=wrap;html=1;" vertex="1" parent="1">
          <mxGeometry x="710" y="480" width="20" height="20" as="geometry" />
        </mxCell>
        <mxCell id="-hfIZKBPIgN7RroAexbz-46" value="2" style="rounded=1;whiteSpace=wrap;html=1;" vertex="1" parent="1">
          <mxGeometry x="870" y="480" width="20" height="20" as="geometry" />
        </mxCell>
        <mxCell id="-hfIZKBPIgN7RroAexbz-47" value="3" style="rounded=1;whiteSpace=wrap;html=1;" vertex="1" parent="1">
          <mxGeometry x="950" y="480" width="20" height="20" as="geometry" />
        </mxCell>
        <mxCell id="-hfIZKBPIgN7RroAexbz-48" value="5" style="rounded=1;whiteSpace=wrap;html=1;" vertex="1" parent="1">
          <mxGeometry x="1110" y="480" width="20" height="20" as="geometry" />
        </mxCell>
        <mxCell id="-hfIZKBPIgN7RroAexbz-49" value="6" style="rounded=1;whiteSpace=wrap;html=1;" vertex="1" parent="1">
          <mxGeometry x="1190" y="480" width="20" height="20" as="geometry" />
        </mxCell>
        <mxCell id="-hfIZKBPIgN7RroAexbz-50" value="7" style="rounded=1;whiteSpace=wrap;html=1;" vertex="1" parent="1">
          <mxGeometry x="1270" y="480" width="20" height="20" as="geometry" />
        </mxCell>
        <mxCell id="-hfIZKBPIgN7RroAexbz-51" value="" style="shape=curlyBracket;whiteSpace=wrap;html=1;rounded=1;labelPosition=left;verticalLabelPosition=middle;align=right;verticalAlign=middle;rotation=-90;" vertex="1" parent="1">
          <mxGeometry x="505" y="405" width="20" height="550" as="geometry" />
        </mxCell>
        <mxCell id="-hfIZKBPIgN7RroAexbz-52" value="Первая октава" style="text;html=1;align=center;verticalAlign=middle;whiteSpace=wrap;rounded=0;fontSize=15;" vertex="1" parent="1">
          <mxGeometry x="490" y="700" width="60" height="30" as="geometry" />
        </mxCell>
        <mxCell id="-hfIZKBPIgN7RroAexbz-53" value="" style="shape=curlyBracket;whiteSpace=wrap;html=1;rounded=1;labelPosition=left;verticalLabelPosition=middle;align=right;verticalAlign=middle;rotation=-90;" vertex="1" parent="1">
          <mxGeometry x="1075" y="405" width="20" height="550" as="geometry" />
        </mxCell>
        <mxCell id="-hfIZKBPIgN7RroAexbz-54" value="Вторая октава" style="text;html=1;align=center;verticalAlign=middle;whiteSpace=wrap;rounded=0;fontSize=15;" vertex="1" parent="1">
          <mxGeometry x="1050" y="700" width="60" height="30" as="geometry" />
        </mxCell>
        <mxCell id="-hfIZKBPIgN7RroAexbz-55" value="До&lt;div&gt;C&lt;/div&gt;" style="rounded=1;whiteSpace=wrap;html=1;" vertex="1" parent="1">
          <mxGeometry x="260" y="550" width="40" height="30" as="geometry" />
        </mxCell>
        <mxCell id="-hfIZKBPIgN7RroAexbz-56" value="Ре&lt;div&gt;D&lt;/div&gt;" style="rounded=1;whiteSpace=wrap;html=1;" vertex="1" parent="1">
          <mxGeometry x="340" y="550" width="40" height="30" as="geometry" />
        </mxCell>
        <mxCell id="-hfIZKBPIgN7RroAexbz-57" value="Ми&lt;div&gt;E&lt;/div&gt;" style="rounded=1;whiteSpace=wrap;html=1;" vertex="1" parent="1">
          <mxGeometry x="420" y="550" width="40" height="30" as="geometry" />
        </mxCell>
        <mxCell id="-hfIZKBPIgN7RroAexbz-58" value="Фа&lt;div&gt;F&lt;/div&gt;" style="rounded=1;whiteSpace=wrap;html=1;" vertex="1" parent="1">
          <mxGeometry x="495" y="550" width="40" height="30" as="geometry" />
        </mxCell>
        <mxCell id="-hfIZKBPIgN7RroAexbz-59" value="Соль&lt;div&gt;G&lt;/div&gt;" style="rounded=1;whiteSpace=wrap;html=1;" vertex="1" parent="1">
          <mxGeometry x="580" y="550" width="40" height="30" as="geometry" />
        </mxCell>
        <mxCell id="-hfIZKBPIgN7RroAexbz-60" value="Ля&lt;div&gt;A&lt;/div&gt;" style="rounded=1;whiteSpace=wrap;html=1;" vertex="1" parent="1">
          <mxGeometry x="660" y="550" width="40" height="30" as="geometry" />
        </mxCell>
        <mxCell id="-hfIZKBPIgN7RroAexbz-61" value="Си&lt;div&gt;B&lt;/div&gt;" style="rounded=1;whiteSpace=wrap;html=1;" vertex="1" parent="1">
          <mxGeometry x="740" y="550" width="40" height="30" as="geometry" />
        </mxCell>
        <mxCell id="-hfIZKBPIgN7RroAexbz-62" value="До&lt;div&gt;C&lt;/div&gt;" style="rounded=1;whiteSpace=wrap;html=1;" vertex="1" parent="1">
          <mxGeometry x="820" y="550" width="40" height="30" as="geometry" />
        </mxCell>
        <mxCell id="-hfIZKBPIgN7RroAexbz-63" value="Ре&lt;div&gt;D&lt;/div&gt;" style="rounded=1;whiteSpace=wrap;html=1;" vertex="1" parent="1">
          <mxGeometry x="900" y="550" width="40" height="30" as="geometry" />
        </mxCell>
        <mxCell id="-hfIZKBPIgN7RroAexbz-64" value="Ми&lt;div&gt;E&lt;/div&gt;" style="rounded=1;whiteSpace=wrap;html=1;" vertex="1" parent="1">
          <mxGeometry x="980" y="550" width="40" height="30" as="geometry" />
        </mxCell>
        <mxCell id="-hfIZKBPIgN7RroAexbz-65" value="Фа&lt;div&gt;F&lt;/div&gt;" style="rounded=1;whiteSpace=wrap;html=1;" vertex="1" parent="1">
          <mxGeometry x="1060" y="550" width="40" height="30" as="geometry" />
        </mxCell>
        <mxCell id="-hfIZKBPIgN7RroAexbz-66" value="Соль&lt;div&gt;G&lt;/div&gt;" style="rounded=1;whiteSpace=wrap;html=1;" vertex="1" parent="1">
          <mxGeometry x="1140" y="550" width="40" height="30" as="geometry" />
        </mxCell>
        <mxCell id="-hfIZKBPIgN7RroAexbz-67" value="Ля&lt;div&gt;A&lt;/div&gt;" style="rounded=1;whiteSpace=wrap;html=1;" vertex="1" parent="1">
          <mxGeometry x="1220" y="550" width="40" height="30" as="geometry" />
        </mxCell>
        <mxCell id="-hfIZKBPIgN7RroAexbz-68" value="Си&lt;div&gt;B&lt;/div&gt;" style="rounded=1;whiteSpace=wrap;html=1;" vertex="1" parent="1">
          <mxGeometry x="1300" y="550" width="40" height="30" as="geometry" />
        </mxCell>
        <mxCell id="-hfIZKBPIgN7RroAexbz-70" value="До#&lt;div&gt;C#&lt;/div&gt;" style="rounded=1;whiteSpace=wrap;html=1;" vertex="1" parent="1">
          <mxGeometry x="300" y="430" width="40" height="30" as="geometry" />
        </mxCell>
        <mxCell id="-hfIZKBPIgN7RroAexbz-72" value="Ре#&lt;div&gt;D#&lt;/div&gt;" style="rounded=1;whiteSpace=wrap;html=1;" vertex="1" parent="1">
          <mxGeometry x="380" y="430" width="40" height="30" as="geometry" />
        </mxCell>
        <mxCell id="-hfIZKBPIgN7RroAexbz-73" value="Фа#&lt;div&gt;F#&lt;/div&gt;" style="rounded=1;whiteSpace=wrap;html=1;" vertex="1" parent="1">
          <mxGeometry x="540" y="430" width="40" height="30" as="geometry" />
        </mxCell>
        <mxCell id="-hfIZKBPIgN7RroAexbz-74" value="Соль#&lt;div&gt;G#&lt;/div&gt;" style="rounded=1;whiteSpace=wrap;html=1;" vertex="1" parent="1">
          <mxGeometry x="620" y="430" width="40" height="30" as="geometry" />
        </mxCell>
        <mxCell id="-hfIZKBPIgN7RroAexbz-75" value="Ля#&lt;div&gt;A#&lt;/div&gt;" style="rounded=1;whiteSpace=wrap;html=1;" vertex="1" parent="1">
          <mxGeometry x="700" y="430" width="40" height="30" as="geometry" />
        </mxCell>
        <mxCell id="-hfIZKBPIgN7RroAexbz-76" value="До#&lt;div&gt;C#&lt;/div&gt;" style="rounded=1;whiteSpace=wrap;html=1;" vertex="1" parent="1">
          <mxGeometry x="860" y="430" width="40" height="30" as="geometry" />
        </mxCell>
        <mxCell id="-hfIZKBPIgN7RroAexbz-77" value="Ре#&lt;div&gt;D#&lt;/div&gt;" style="rounded=1;whiteSpace=wrap;html=1;" vertex="1" parent="1">
          <mxGeometry x="940" y="430" width="40" height="30" as="geometry" />
        </mxCell>
        <mxCell id="-hfIZKBPIgN7RroAexbz-78" value="Фа#&lt;div&gt;F#&lt;/div&gt;" style="rounded=1;whiteSpace=wrap;html=1;" vertex="1" parent="1">
          <mxGeometry x="1100" y="430" width="40" height="30" as="geometry" />
        </mxCell>
        <mxCell id="-hfIZKBPIgN7RroAexbz-79" value="Соль#&lt;div&gt;G#&lt;/div&gt;" style="rounded=1;whiteSpace=wrap;html=1;" vertex="1" parent="1">
          <mxGeometry x="1180" y="430" width="40" height="30" as="geometry" />
        </mxCell>
        <mxCell id="-hfIZKBPIgN7RroAexbz-80" value="Ля#&lt;div&gt;A#&lt;/div&gt;" style="rounded=1;whiteSpace=wrap;html=1;" vertex="1" parent="1">
          <mxGeometry x="1260" y="430" width="40" height="30" as="geometry" />
        </mxCell>
        <mxCell id="-hfIZKBPIgN7RroAexbz-81" value="" style="rounded=1;whiteSpace=wrap;html=1;" vertex="1" parent="1">
          <mxGeometry x="240" y="800" width="80.00000000000001" height="320" as="geometry" />
        </mxCell>
        <mxCell id="-hfIZKBPIgN7RroAexbz-82" value="" style="rounded=1;whiteSpace=wrap;html=1;" vertex="1" parent="1">
          <mxGeometry x="320" y="800" width="80.00000000000001" height="320" as="geometry" />
        </mxCell>
        <mxCell id="-hfIZKBPIgN7RroAexbz-83" value="" style="rounded=1;whiteSpace=wrap;html=1;fillColor=#f8cecc;strokeColor=#b85450;" vertex="1" parent="1">
          <mxGeometry x="400" y="800" width="80.00000000000001" height="320" as="geometry" />
        </mxCell>
        <mxCell id="-hfIZKBPIgN7RroAexbz-84" value="" style="rounded=1;whiteSpace=wrap;html=1;" vertex="1" parent="1">
          <mxGeometry x="480" y="800" width="80.00000000000001" height="320" as="geometry" />
        </mxCell>
        <mxCell id="-hfIZKBPIgN7RroAexbz-85" value="" style="rounded=1;whiteSpace=wrap;html=1;" vertex="1" parent="1">
          <mxGeometry x="560" y="800" width="80.00000000000001" height="320" as="geometry" />
        </mxCell>
        <mxCell id="-hfIZKBPIgN7RroAexbz-86" value="" style="rounded=1;whiteSpace=wrap;html=1;" vertex="1" parent="1">
          <mxGeometry x="640" y="800" width="80.00000000000001" height="320" as="geometry" />
        </mxCell>
        <mxCell id="-hfIZKBPIgN7RroAexbz-87" value="" style="rounded=1;whiteSpace=wrap;html=1;fillColor=#f8cecc;strokeColor=#b85450;" vertex="1" parent="1">
          <mxGeometry x="720" y="800" width="80.00000000000001" height="320" as="geometry" />
        </mxCell>
        <mxCell id="-hfIZKBPIgN7RroAexbz-88" value="" style="rounded=1;whiteSpace=wrap;html=1;" vertex="1" parent="1">
          <mxGeometry x="800" y="800" width="80.00000000000001" height="320" as="geometry" />
        </mxCell>
        <mxCell id="-hfIZKBPIgN7RroAexbz-89" value="" style="rounded=1;whiteSpace=wrap;html=1;" vertex="1" parent="1">
          <mxGeometry x="880.0000000000001" y="800" width="80.00000000000001" height="320" as="geometry" />
        </mxCell>
        <mxCell id="-hfIZKBPIgN7RroAexbz-90" value="" style="rounded=1;whiteSpace=wrap;html=1;" vertex="1" parent="1">
          <mxGeometry x="960.0000000000001" y="800" width="80.00000000000001" height="320" as="geometry" />
        </mxCell>
        <mxCell id="-hfIZKBPIgN7RroAexbz-91" value="" style="rounded=1;whiteSpace=wrap;html=1;" vertex="1" parent="1">
          <mxGeometry x="1040" y="800" width="80.00000000000001" height="320" as="geometry" />
        </mxCell>
        <mxCell id="-hfIZKBPIgN7RroAexbz-92" value="" style="rounded=1;whiteSpace=wrap;html=1;" vertex="1" parent="1">
          <mxGeometry x="1120" y="800" width="80.00000000000001" height="320" as="geometry" />
        </mxCell>
        <mxCell id="-hfIZKBPIgN7RroAexbz-93" value="" style="rounded=1;whiteSpace=wrap;html=1;" vertex="1" parent="1">
          <mxGeometry x="1200" y="800" width="80.00000000000001" height="320" as="geometry" />
        </mxCell>
        <mxCell id="-hfIZKBPIgN7RroAexbz-94" value="" style="rounded=1;whiteSpace=wrap;html=1;" vertex="1" parent="1">
          <mxGeometry x="1280.0000000000002" y="800" width="80.00000000000001" height="320" as="geometry" />
        </mxCell>
        <mxCell id="-hfIZKBPIgN7RroAexbz-95" value="" style="rounded=1;whiteSpace=wrap;html=1;fillColor=#000000;" vertex="1" parent="1">
          <mxGeometry x="290" y="800" width="60" height="200" as="geometry" />
        </mxCell>
        <mxCell id="-hfIZKBPIgN7RroAexbz-96" value="" style="rounded=1;whiteSpace=wrap;html=1;fillColor=#000000;" vertex="1" parent="1">
          <mxGeometry x="370" y="800" width="60" height="200" as="geometry" />
        </mxCell>
        <mxCell id="-hfIZKBPIgN7RroAexbz-97" value="" style="rounded=1;whiteSpace=wrap;html=1;fillColor=#000000;" vertex="1" parent="1">
          <mxGeometry x="530" y="800" width="60" height="200" as="geometry" />
        </mxCell>
        <mxCell id="-hfIZKBPIgN7RroAexbz-98" value="" style="rounded=1;whiteSpace=wrap;html=1;fillColor=#d80073;fontColor=#ffffff;strokeColor=#A50040;" vertex="1" parent="1">
          <mxGeometry x="610" y="800" width="60" height="200" as="geometry" />
        </mxCell>
        <mxCell id="-hfIZKBPIgN7RroAexbz-99" value="" style="rounded=1;whiteSpace=wrap;html=1;fillColor=#000000;" vertex="1" parent="1">
          <mxGeometry x="690" y="800" width="60" height="200" as="geometry" />
        </mxCell>
        <mxCell id="-hfIZKBPIgN7RroAexbz-100" value="" style="rounded=1;whiteSpace=wrap;html=1;fillColor=#000000;" vertex="1" parent="1">
          <mxGeometry x="850" y="800" width="60" height="200" as="geometry" />
        </mxCell>
        <mxCell id="-hfIZKBPIgN7RroAexbz-101" value="" style="rounded=1;whiteSpace=wrap;html=1;fillColor=#000000;" vertex="1" parent="1">
          <mxGeometry x="930" y="800" width="60" height="200" as="geometry" />
        </mxCell>
        <mxCell id="-hfIZKBPIgN7RroAexbz-102" value="" style="rounded=1;whiteSpace=wrap;html=1;fillColor=#000000;" vertex="1" parent="1">
          <mxGeometry x="1090" y="800" width="60" height="200" as="geometry" />
        </mxCell>
        <mxCell id="-hfIZKBPIgN7RroAexbz-103" value="" style="rounded=1;whiteSpace=wrap;html=1;fillColor=#000000;" vertex="1" parent="1">
          <mxGeometry x="1170" y="800" width="60" height="200" as="geometry" />
        </mxCell>
        <mxCell id="-hfIZKBPIgN7RroAexbz-104" value="" style="rounded=1;whiteSpace=wrap;html=1;fillColor=#000000;" vertex="1" parent="1">
          <mxGeometry x="1250" y="800" width="60" height="200" as="geometry" />
        </mxCell>
        <mxCell id="-hfIZKBPIgN7RroAexbz-159" value="" style="rounded=0;whiteSpace=wrap;html=1;" vertex="1" parent="1">
          <mxGeometry x="240" y="1280" width="1120" height="190" as="geometry" />
        </mxCell>
        <mxCell id="-hfIZKBPIgN7RroAexbz-160" value="" style="shape=image;verticalLabelPosition=bottom;labelBackgroundColor=default;verticalAlign=top;aspect=fixed;imageAspect=0;image=data:image/png,iVBORw0KGgoAAAANSUhEUgAABEcAAAHECAMAAADs5LRtAAAAAXNSR0IArs4c6QAAAARnQU1BAACxjwv8YQUAAADDUExURdnZ2dnZ2dra2v////D193ShtTJ0khVggmaXrenw84OrvStvjm2cseLr7xxlhkiDnqC+zFeNpUF+msTX4NPh59rm65i5yPj6+6fD0CRqir3S3Dp5lrbN2HymuZG0xIqvwF6SqWuVqCdritPV1rrGyyJoiJyzvsfO0RtkhaK3wbTCyC1vjcHKzq7I1Mzc41CIoqi7xHecrUyCmjp3k32gsMzR01+Oo2WSpomntUB7lo+ruHGZq4Oks1mKoDRzkNra2tnZ2UP3iIcAAABBdFJOU4f/n////////////////////////////////////////////////////////////////////////////////8ffJy6WXwAAAAlwSFlzAAAXEQAAFxEByibzPwAAGZtJREFUeF7t3Xl/FMe1xnHrAiMkYRSwWOxgG4MJa0ISDE4cX+e+/1d1P1Onuqenpqenu2s7VfX7/tkjbG3zqOqcWr766gwAfPwPMQLA11dnZ7cAYD1yBIAvcgSAL3IEgC9yBIAvcgSAL3IEgC9yBIAvcgSAL3IEgC9yBIAvcgSAL3IEgC9yBIAvcgSAL3IEgC9yBIAvcgSAL3IEgC9yBIAvcgSAr4kccQ+EBtA8NyYEOQJgPjcmxESOAMAs5AgAX+QIAF/kCABf5AgAX+QIAF/kCABf5AgAX+QIAF/kCABf5AgAX+QIAF/kCABf5AgAX+QIAF/kCABf5AgAX+QIAF/kCABf5AgAX+QIAF/kCABf5AgAX+QIAF/kCABf5AgAX+QIAF/kCABf5AgAX+QIAF/kCABf5AgAX+QIAF/kCABf5AgAX+QIAF/kCABf5AgAX+QIAF/kCABf5AgAX+QIAF/kCABfEzlyBgD73JgQ5AiA+dyYEBM5ktDtO5vzzd0L9zGAIuTOkW2CDJEmQHny5sjF5X6KbF3d+9r9MACqZcyRsRARG6IEKEm2HLl9ed+Nj6F7TG+AYuTJEbcqcn5+/acHzhMqJUApsuTIxcNBXlx/M3jlZpgmm0eDVwColSFHhjOaq8dP3JefDoYqzG6AEqTPkd1g5P5hiIin33YfwpAEKEDyHNkNRvYmNPsG0xuGJIB6qXPk0sbD1XfuK46bP9uP3NADBpRLnCMXMho5OqMZ6mY31+4LAHRJmyO2NnJyMCK6Ickz9wUAqiTNEVsb+X7GYETYIQk1EkC1lDliayNXs2Pk1q1n8k+okQCaJcyRr21tZN6kxromSAD10uWIndTMrI10btvVJgQJoFeyHLGTmvm1kY6tkRAkgFqpcsROajaLY+TWrRuCBNAtUY7YSc26LCBIAN3S5MjqSY0gSADVkuSIXcW6ZlIjCBJAsxQ5YnsuPilAkACKJcgRGyNrJzXCBgl7bQCF4ueIjZElq1jH2CBhrw2gT/QcsTGybBXrGAkSZjaAPrFzJFiMdHttCBJAndg58n2wGOn22hAkgDaRc0Q6vmFi5NYjaq2ASpFzxAxHAsUItVZAqbg5IsORx+7j1ai1AhpFzREpsvp2fIeotQIKxcwR26sJNxzpa62USABNYuaI9GpCDkf6WislEkCRiDkStFfTkxLJQ/cxgHwi5sjdGDHSlUh+cB8DyCZejnwXvjgiTInk/o37GEAu0XLkyVX44oi4MfMlZjaAGtFyRIqsT93HIfxIqRVQJVaOSJH1ufs4iCfmvk4WkQBaRMoRuwIt0n2arEYDVImTIzFWoA2xGg3QZCJHztb7ybzPX7x0n4fy8yvzP/iL+xxAXG5MiCg58vrN9l3+5q37PJx3Jkjef3CfA4jKjQkxkSPrRVqBNkSJBNAjRo5EW4E2JCWSOA0hAItEyJF4K9CG7IY9BiRAfhFyJOIKtCHZsMc+GyC/8DkScwXanj9RIQF0CJ8jpsgaawXa0AWlVkCH4DmSpMgqnlNqBVQInSNpiqyCUiugQ+gcSVRkFZRaARUC50iyIqswpVZOIgEyC5wjZjiSosgqpNTKSSRAXmFz5ImZaCQpsooHDEiA/MLmiGnWpCmyCg59BhQImyOmE3vHfRoThz4D+QXNkb+a0cE37uOYOPQZyC9kjlzI2hH3cVwc+gxkFzJHkq4d6cihzwxIgIwC5og0ax64j2Oj1ArkFjBHTLPm22RrR3qUWoHMwuWInBGftFkjpNTK4fFANsFyxF41kbRZY0mple16QC7BckSKrImbNUJKrVRIgFxC5YgUWe/nGI5wMhqQWagcMUXWuFdNHMfJaEBWoXIk/Yr4IU5GA3IKlCMZVsQPcTIakFOYHMmyIn6Ik9GAjMLkSJYV8XvkZLSEJxYA6AXJkUwr4oek1Pqj+xhAAkFyJNeK+CFzMhqr44EcguRI3maN+JsZkLA6HsggRI5kbtZYl+azoGUDpBcgR7I3awSr44FcAuRI/maNoGUDZOKfIwqaNYKWDZCJf45oaNYIWjZAHv45oqFZI2jZAHl454iOZo2gZQNk4ZsjSpo1gpYNkIVvjmhp1gjTsmFiAyTmmSNqmjVCWjZMbIC0PHNET7NGfGRiA6TnmSP3tu9bFc0awVo0IIOJHDk77eWr7fv27+7jfF6bic0/3McAwnBjQvjlyNvtu/aF+zSnf24/ozfv3McAgnBjQkzkyAx61qB1WIsGpOeVI5rWoHVYiwYk55MjqtagdViLBiTnkyO61qB1aNkAqfnkiK41aB2ODwBS88iRm+379b6eNWgdjg8AEvPIkcfb96vCuzBp2UR1cbkx3+CtzT0K2tjyyBHzd/+x+1QBWjZx3L6zS5ChzV19g1KktT5HpOmrcfpAyya84ShkDCOTtq3OEZVNX4uWTVinQkQQJQ1bnSM6m76Clk1A80JEECWtWpsjyg4ecdCyCeX25X03LK4e9yO9p4cRQ7GkSWtzRNvBI/to2YThjkWux/ZA3JjU3tk8cj8C1VubI9oOHnHQsglgbywyGIWM2RuZML1pzsocuTC/YWN/nXSgZePv4uHcEBF7UXJP61AVUazMEVNl1dmsEbRsPO0GI/fnhIgYRgmFkpasyxEZjmhcg9ahZeNjuOJstCZy1I0ZCNokoVDSjHU5IsOR2X+mcqBls95uRrNgLNIZjkmY3bRiVY5I01fzcISWzXqD8urVd+6Lszw1vx9bDEkasSpHTNNX93CEls1aXoMRa9AKpkzShFU5ou9Y1hG0bFbZDUaWFUZcu0IJY5IGrMkRjceyjqBls4KM4lbPaIZ2sxvKJNVbkSOad+gN0bJZThpxHjOaIYYk7ViRI5p36O2hZbOUrY0EGIyIXe+GIUndVuSI6h16Q7RslukaNd+HGIxY/ZiEIUnVlueI1mNZR9CyWaJr1ARuxPVlEoYkFVueI1qPZR0hLZsCZmAadI2a+6EmNR2GJA1YniNqj2Ud8aP5O+g+xYiAjZoDDEmqtzhH9B7LOuIb82fQfYpDX4ds1BxgSFK7pTlSStNXPDHvDgokJ9lJTYzBiGBIUrelOVJM01d83H62rGk9xU5qQjZqXLshCbFeoaU5UkzTV7CmdQ47qdnE/T51QxKCpEILc6Sgpq/BmtbTumUj0d/f3ZAk+v8IyS3MkYKavoI1rafctstGYk5qOnZIQpBUZ2GOmJ2+hTR9Dda0ntDFSORJjXVjg4S2TWWW5YgcYFTUX3fWtE7qYyTRd8gGCW2byizLETnAyH2qGseQTLExEmnZyJguSBiSVGVZjii/tWaUtGzcpzCkjR98KfyULkgYktRkUY5ov7VmlLRsnrmP0f9Ak8YIi1urtChH1N9aM8q0bBiQjJBZTeIYGS5uvZNsOoW4luSI/ltrRj1jQDLOFkcy/ED7IUk5KxoxaUmOFHBrzSjzdqH167IxkucH2g1JiPc6LMiREm6tGSUDkkSNzWJ0rZrksxrRDUmotlZhIkfOHG+3P/YXL93HBfi0/cx/cZ+27bP5ppy/eeu+kMwvEiTvP7gvQDM3JsSCHPmy/an/6j4twb+2n/mnEhMwnp9yx8jZ2b9tkPzsvgDF3JgQEzniKLLpK9itd0C2+Oaa1IhuLS1zm/LNz5Eym76C3XoO2eKbN0Y4SqAis3Ok0KavYLfePntuUf6fZr9KniAp2+wcKbXpK9itN2RvzUuzxXcaZ5LUYW6OFNv0FdxAMWDrEkreut2ZJCySL9ncHJGdvgr+gK3EDRQ9GyMpzi2ahaMEKjA3R0rc6TskN1BoeetkJXt8Ff1N4CiB8s3MkYKbvkJuoKD1m2mP77T+KAH27ZVqZo6U3PQVtH5Frj2+k9i3V7p5OVJ001fQ+jXy7fGdxr69ss3LkbKbvoLW75a64kiHfXtFm5cjZTd9BQe16iyO9H6QIFHSjsYis3LE3H71rb6/YctwUKsdjuiMkVu3rm2Q0LYpz6wcKe72q1Ec1Kq8ztXv26NtU5xZOWJ6HVp/++Zr/qBWeaMqLI50umorbZvSzMmRv5qfbfkt09YPatXaqxnoVpK0+0Mq1Iwcubgyf8XcxwVq/KBWtb2aAdo2ZZqRI/LrV8Met7YPatXcqxno2jZUW0syI0fMULOOGasZkDTa+lW5kHWMbdswJCnJ6RwxTd/7dfxMTeu3zYlNAcURq2/bMCQpx+kcqaPpK6T12+TEpoTiSIf79opzOkcqafqKj9svpsWJTSHFEYt9e6U5mSO1NH2FrGlt769cMcWRDvv2ynIqR+pp+hqN3kBRTnGkRwO4KKdypJ6mr2jzGJKSiiM99u0V5FSOVNT0NZo8hqSs4kiPfXvlOJEjNTV9RYPHkBRXHLG4b68cJ3KkpqavaO8GigKLI53+vr3yhiS372xsCh7a3Kvu79iJHHm+/bJL/A08rrkbKIosjlj9CdAFDUmmEmSoqjQ5kSPmx1hXVbK1GygKLY5Y/UqSIoYkF5fzIqRTT5RM54gchOY+LVtjN1CUWhzp9YtbtQ9JloaIVUeWTOdIfeWR1lq/BRdHOgUMSeZOZY6oIEqmc6SqNfGdplq/JRdHerqHJMdC5ProtXFPD/9B6VEymSN1rYnvNdT6levdC57VCLVDkvEMOZ4gQ26aFB0lUzlS2Zr4XkM3UJjr3YuPEaVDkpEQuXq8aOTnRomiL26hqRypbU18r50bKEq/3n1nNyTR8VfbP0Ss/SzZ3C0zSqZypLY18b1mbqAo/nr3IUWL0g5DZN5U5oi9KLkqcnozkSP1rYnvNXIDhb1nwn1cqn5Iknf4HzhExF6U5P36VpnIkSqbvqKNGygq6Pk68g9JDkIkQIZYfQko59e31kSOVLgmvtfEDRRV9Hz3ZV4n7y41CxciWzdmmCxKa94czxGZW1fX9BUt3EBR9oL4I/q5TfqKZNwQEcMoyROVKx3PEfPXrJq5tauBGyjubr/EymJkb/ifcvSfIkREnq/P1/EcUX2ltLf6D2o1S0dq/AHuhiSp/mSnC5Gt9F9fAMdzZPt1vHh5VqnX5uf0D/dxPV6+qPcH+Nur7o32/mf3tfA+/+dN/8Y+Pz//99/dDwjut/cpv76F3JwQ0znyu/sfqcc/t1/fm3fu42r8ZH4Pf3Mf1+Gd+enJO+1/X7uvhvT51/49vfXi90TB3Efll6hf3gpuTojJHKn5lI7Kd+tJkbXOrr0xKLjGKyPsT2jWrVddqf/6yliXdjxHrs8flvAFrFb1bj27Aq2Y6fUag4JklLdaxhAxdl9fAWWS4zlSu5oPaq1vBdqYQUEy+FttP0TuJw+RrSRDrkDazZGaD2qtcAXaqOFq8mDrSQ6WrEbuz0woZ0jScI7Ue1BrlSvQxg3HJCGiRFGIbO3WpSkfkjScI/Ue1FrpCrRxIffduwtFMlRFDmg8eeVQwzlS7UGt1a5AO2aww211f+NwIKIhRLbUHgY31HKOVNr6fSLH2Kl4DyQy3Jayon9zMAzREyJGAUOSlnOk0tZvtcfYTXKiZO4MZ2QYkrkkMkb/kKTpHKnyoNbqV6AddRAlU2kyGiBb6kLE6Ickd/QMk4aazhHZrVfXxKaFFWjHjUXJEppmM/v6IYnOg07bzhE5qLWmiU0bK9CmuGewz6ZzILLTDUlUHuPXdo7c+rj9wdQ0sWllBdqkxVGidxgyZIckKmskjedIbTdQVHLvVQCzZzjahyFDP8inrLBt03iO1HYDRTX3XgUylSYlBUjnWj51fUOSxnOkthso6rn3CmMeaV1J0nqO1HUDRVX3XmGE1pUkredIXTdQmI011Z7NjS2di1ubz5GabqBobmNNk7TddGw0nyMV3UDR4MaaNvXXCuoJEnKknhso2txY06JuSKInSMgRaf1WcAxJuxtrGmSHJGqqreRILceQtL2xpjndTcdKqq3kSCXHkLCxpjFdkOiY25AjlRxDwsaa1qgKEnKkjmNI2FjTHk3VVnKkjpYNG2ta1FVb8wcJOVJFy0aqI2ysaY2d2+Rv25AjW6W3bGyRlY01zdHStiFHtkpv2dgiq/sY9VNSbSVHjLJbNrbIynCkRTqChBwxym7ZUGRtmYq2DTkiSj5gkSJr4xQskidHRMEHLFJkbV7+ais5YpV7wCJFVvRFklxDEnLEKvaARdnmS5G1bV2Q5LpvjxzplHrAojlLkSJr6zLft0eOdAo9YJGzFCGy3rdHjvSKPGCRsxTRyXnfHjnSK3K3HmcpYifffXvkSK/E3XqcpYih7r695NNzcmSnwN16ZjjCWYqwuvv2kgcJObJT3m492VhDkRWdXIvkJ3LkrDn/MT+CD+5jvd5uP98XL93HaNhvr8xv8fuf3RcCcWNCkCMDL//Y/gR+cR+r9fnT9vP91X2Mpr2TIDn/8tp9JQg3JsREjjTItGyKmdiwsQZjciySJ0eGpGWTeGq5GhtrMCrDInlyZM/H7Xe/kLVobKzBEekXyZMje0pai8bGGhyVepE8ObKnoLVobKzBhG5IkmhtKzmyr5i1aGyswTS7SD7NShJyZF8xa9HYWIMTukXyKdo25IijkJPj2ViDU+y6gCRzG3LEUcbJ8fIrwsYaTOqqrfGHJOSIy7Rs0kwqV7N/aSiyYlqylSTkiEtaNrqDxK5Ai/y7gfKlWklCjhx4br7vmksP9v48lo7gtDQrSciRA/YMB8UDEu7Pw3xJVpKQI4dkUqm31Mr9eVikW0kSsdpKjozQvTqebb5YyK4kiTgkIUdG6F4dzzZfLNSvJIk2JCFHxmheHc82XyzXVVtjDUnIkTGaV8ezzRcr9A3gOCsayJFRelfHs80X60Rd3EqOjFK7Op5tvlirH5JEmNuQI+O0tmzY5ov14g1JyJFxSls2bPOFj36/zeZe2Ek7OXKEzpYN9+fBSz+3CTy7IUeOkJbNQ/dxXjIcociK9foOcNDZDTlyjLRs4u5uWsr0fCmywkeUIQk5coy0bFQNSOj5IoSnmz5JNnfDRAk5ctQz841W1Pul54tQBrObIAVXcuQ4s7tJUamVni+C2c1ugpRJyJHjbkxVU83qeHq+CGkwJPFvApMjE34032Xv73EYHO2MsG7M2oYwUUKOTNC0Op6jnRFevy7NN0rIkSmyOt59mgVHOyOCQRN4RpRcXG42d92HBjkyRVbHa1hDYk8d4bgABDZoApsoOdoIvriUj3SfG+TIJDODVDAgkVkNMYIYnCg5SJMuQcTghR1yZJKSNSQURxDXYZQc5f5TgxyZpmMNCcURRDczSsYPBiZHpskakswzG+69QhIno+Tq8ZG/ZeTICbKGJG+plXuvkMhwTYnraIiQI6cp2K7HvVdIy02TqQQR5Mgp2Uut3HsF9ciRk3KXWrn3CuqRIydlLrVy7xX0I0dOy1pqZQUaCjCRI2cQL//YvpXff3Cfp/D5kwmx393nQB5uTAhyZIa/mPdyliD5yfyvX7x0nwN5uDEhJnIEPVNqzXGEENvzUARyZI5HckzD9KbqGEyvhhiBduTILHLeS/JFJNxXgzKQI/OYE43CHK09nz1K8dRaQiA3cmQeOdEobZBwWgBKQY7M9Ny8p5MeHs9pASgFOTKTLbUmXI1GrwbFIEfmklJrupkNC1lRDnJkNtn4mypIKI6gIOTIfElXo1EcQUHIkflSrkajOIKSkCMLpFuNRnEERSFHlkh1vx7FEZSFHFki0f16NkYojqAU5Mgi5vzb2C0bGyPMalAMcmSRFL1fYgTFIUeWkd5v1OXx0vElRlAQcmSZ+Mvj6fiiPOTIQtL7Pb8TqwZKxxcFIkeWkhLJ+QP3eRh0fFEicmQxKZHEmdrQ8UWRyJHF7Hs9StOGGiuKRI6s8EOsIKHGijKRI2tE6v5SY0WhyJE14nR/qbGiVOTIKjG6v9RYUSxyZJ3w3V+Ww6Nc5MhKobu/xAgKRo6sFLj7e0GMoGDkyGohu7+XpuFLjKBQ5Mh6MrUJESSXMkkiRlAocmQ92/31X0byNaMRlI0c8WC7v5611tt2UnNFjKBU5IgPGyT3LtwXFrAF2/PvWTeCYpEjXuwyEo8aSRcjG2IE5SJH/NhlJKuDpI+Rtf8BQAFyxI9nDnSrzx4zGkHJyBFfT6VGsnnkvjADq89QB3LEmy22Lq+2do0aYgSlI0f8dUGycEhiByPECMpHjgTQBcmSIUk3GCFGUAFyJISbP9sgmT0k6QYjrD5DDciRMGy1deaQZDcYoVGDGkzkyBkWePeHDZIXXz64r+37/Ot7+6HnL966LwK6uTEhyJFgfnvVxcOX1+5rA68/dR/25veX7ouAcm5MiIkcwUJ9leT8fHN3fHpz+86m/xgqI6gGORJSXyUZjZJhiFAZQU3IkaBuHuySwpA02UsQ4/ob958C5SJHQhuOSY5gRoPKkCPBHYxJHFfMaFAbciSGiShhQoMKkSORjEYJIYI6kSNR9WlCgqBm5AgAX+QIAF/kCABf5AgAX+QIAF/kCABf5AgAX+QIAF/kCABf5AgAX+QIAF/kCABf5AgAX+QIAF/kCABf5AgAX+QIAF/kCABf5AgAX+QIAF/kCABf5AgAX+QIAF/kCABf5AgAX+QIAF/kCABf5AgAX+QIAF/kCABf5AgAX+QIAF/kCABf5AgAX+QIAF8TOXIGAPvcmBDkCID53JgQEzkCALOQIwB8kSMAfJEjAHyRIwB8kSMAfJEjAHyRIwB8kSMAfJEjAHyRIwB8kSMAfJEjAHyRIwB8kSMAfJEjAHyRIwB8kSMAfJEjAHyRIwB8kSMAfJkcAQAvX/3XfQIAi/zf/wNux/At3V6FNwAAAABJRU5ErkJggg==;" vertex="1" parent="1">
          <mxGeometry x="230" y="1500" width="1130" height="466.45" as="geometry" />
        </mxCell>
      </root>
    </mxGraphModel>
  </diagram>
</mxfile>
